0
SECTION
2
HEADER
9
$ACADVER
1
AC1009
0
ENDSEC
0
SECTION
2
ENTITIES
0
LINE
8
0
10
472.270
20
377.070
11
468.000
21
406.770
0
LINE
8
0
10
490.800
20
926.400
11
300.000
21
936.000
0
LINE
8
0
10
300.000
20
936.000
11
248.000
21
882.000
0
LINE
8
0
10
180.000
20
662.770
11
178.400
21
509.200
0
LINE
8
0
10
461.330
20
245.330
11
461.600
21
333.200
0
LINE
8
0
10
490.130
20
423.730
11
468.000
21
406.770
0
LINE
8
0
10
710.670
20
674.670
11
704.000
21
528.000
0
LINE
8
0
10
686.800
20
206.400
11
701.710
21
192.000
0
LINE
8
0
10
102.000
20
62.000
11
104.000
21
104.000
0
LINE
8
0
10
104.000
20
104.000
11
166.130
21
179.730
0
LINE
8
0
10
248.000
20
882.000
11
177.710
21
880.000
0
LINE
8
0
10
248.000
20
882.000
11
238.670
21
881.330
0
LINE
8
0
10
629.200
20
217.600
11
686.800
21
206.400
0
LINE
8
0
10
84.000
20
236.000
11
154.910
21
233.450
0
LINE
8
0
10
484.000
20
622.770
11
490.130
21
423.730
0
LINE
8
0
10
461.600
20
333.200
11
472.270
21
377.070
0
LINE
8
0
10
472.270
20
377.070
11
484.000
21
366.000
0
LINE
8
0
10
160.000
20
230.000
11
154.910
21
233.450
0
LINE
8
0
10
160.000
20
230.000
11
154.910
21
233.450
0
LINE
8
0
10
461.330
20
245.330
11
448.000
21
220.000
0
LINE
8
0
10
448.000
20
220.000
11
321.090
21
205.450
0
LINE
8
0
10
102.000
20
62.000
11
96.000
21
40.000
0
LINE
8
0
10
153.090
20
246.550
11
196.000
21
288.000
0
LINE
8
0
10
196.000
20
288.000
11
180.000
21
348.000
0
LINE
8
0
10
509.710
20
908.000
11
490.800
21
926.400
0
LINE
8
0
10
629.200
20
217.600
11
622.670
21
222.670
0
LINE
8
0
10
705.710
20
700.290
11
664.800
21
740.800
0
LINE
8
0
10
146.670
20
250.670
11
106.550
21
293.090
0
LINE
8
0
10
686.800
20
206.400
11
701.710
21
192.000
0
LINE
8
0
10
686.800
20
206.400
11
701.710
21
192.000
0
LINE
8
0
10
311.200
20
215.200
11
316.000
21
208.000
0
LINE
8
0
10
856.000
20
174.000
11
842.290
21
186.290
0
LINE
8
0
10
856.000
20
174.000
11
842.290
21
186.290
0
LINE
8
0
10
148.000
20
473.230
11
148.000
21
504.000
0
LINE
8
0
10
148.000
20
504.000
11
178.400
21
509.200
0
LINE
8
0
10
672.000
20
736.000
11
676.800
21
728.800
0
LINE
8
0
10
672.000
20
736.000
11
676.800
21
728.800
0
LINE
8
0
10
672.000
20
736.000
11
664.800
21
740.800
0
LINE
8
0
10
672.000
20
736.000
11
664.800
21
740.800
0
LINE
8
0
10
106.550
20
293.090
11
108.000
21
428.000
0
LINE
8
0
10
108.000
20
428.000
11
126.910
21
445.450
0
LINE
8
0
10
632.000
20
108.000
11
701.710
21
192.000
0
LINE
8
0
10
858.290
20
578.290
11
814.290
21
623.710
0
LINE
8
0
10
842.290
20
186.290
11
701.710
21
192.000
0
LINE
8
0
10
550.800
20
246.400
11
484.000
21
256.000
0
LINE
8
0
10
484.000
20
256.000
11
461.330
21
245.330
0
LINE
8
0
10
842.290
20
186.290
11
856.000
21
174.000
0
LINE
8
0
10
842.290
20
186.290
11
884.000
21
232.000
0
LINE
8
0
10
884.000
20
232.000
11
897.330
21
269.330
0
LINE
8
0
10
314.400
20
814.800
11
248.000
21
882.000
0
LINE
8
0
10
877.090
20
505.450
11
850.290
21
530.290
0
LINE
8
0
10
877.090
20
505.450
11
850.290
21
530.290
0
LINE
8
0
10
290.670
20
466.670
11
189.200
21
473.600
0
LINE
8
0
10
897.330
20
269.330
11
912.000
21
268.000
0
LINE
8
0
10
704.000
20
808.000
11
704.000
21
792.000
0
LINE
8
0
10
704.000
20
792.000
11
659.000
21
751.800
0
LINE
8
0
10
135.200
20
439.200
11
142.550
21
430.910
0
LINE
8
0
10
622.910
20
786.550
11
659.000
21
751.800
0
LINE
8
0
10
622.910
20
786.550
11
659.000
21
751.800
0
LINE
8
0
10
108.000
20
924.000
11
152.000
21
908.000
0
LINE
8
0
10
178.400
20
509.200
11
188.000
21
492.000
0
LINE
8
0
10
288.000
20
844.000
11
292.800
21
836.800
0
LINE
8
0
10
288.000
20
844.000
11
292.800
21
836.800
0
LINE
8
0
10
288.000
20
844.000
11
280.800
21
848.800
0
LINE
8
0
10
288.000
20
844.000
11
280.800
21
848.800
0
LINE
8
0
10
218.550
20
126.910
11
166.130
21
179.730
0
LINE
8
0
10
218.550
20
126.910
11
176.800
21
168.800
0
LINE
8
0
10
606.400
20
882.800
11
586.290
21
904.000
0
LINE
8
0
10
586.290
20
904.000
11
606.400
21
882.800
0
LINE
8
0
10
152.000
20
908.000
11
156.800
21
900.800
0
LINE
8
0
10
152.000
20
908.000
11
156.800
21
900.800
0
LINE
8
0
10
152.000
20
908.000
11
146.800
21
910.400
0
LINE
8
0
10
218.550
20
126.910
11
224.000
21
124.000
0
LINE
8
0
10
218.550
20
126.910
11
176.800
21
168.800
0
LINE
8
0
10
345.330
20
405.330
11
468.000
21
406.770
0
LINE
8
0
10
642.000
20
402.000
11
497.200
21
417.600
0
LINE
8
0
10
273.330
20
857.330
11
280.800
21
848.800
0
LINE
8
0
10
856.000
20
100.000
11
856.000
21
174.000
0
LINE
8
0
10
885.200
20
581.600
11
948.000
21
640.000
0
LINE
8
0
10
321.090
20
205.450
11
316.000
21
208.000
0
LINE
8
0
10
321.090
20
205.450
11
297.110
21
228.440
0
LINE
8
0
10
166.130
20
179.730
11
172.000
21
176.000
0
LINE
8
0
10
106.550
20
293.090
11
132.000
21
264.000
0
LINE
8
0
10
622.670
20
222.670
11
629.200
21
217.600
0
LINE
8
0
10
622.670
20
222.670
11
616.290
21
229.710
0
LINE
8
0
10
544.000
20
944.000
11
538.550
21
909.090
0
LINE
8
0
10
297.110
20
228.440
11
180.000
21
232.000
0
LINE
8
0
10
180.000
20
232.000
11
165.330
21
218.670
0
LINE
8
0
10
705.710
20
700.290
11
676.800
21
728.800
0
LINE
8
0
10
858.290
20
578.290
11
814.290
21
623.710
0
LINE
8
0
10
172.000
20
176.000
11
176.800
21
168.800
0
LINE
8
0
10
172.000
20
176.000
11
176.800
21
168.800
0
LINE
8
0
10
172.000
20
176.000
11
166.130
21
179.730
0
LINE
8
0
10
550.800
20
246.400
11
557.200
21
241.600
0
LINE
8
0
10
176.240
20
468.710
11
176.000
21
432.000
0
LINE
8
0
10
176.000
20
432.000
11
148.000
21
428.000
0
LINE
8
0
10
472.270
20
377.070
11
484.000
21
366.000
0
LINE
8
0
10
877.090
20
505.450
11
880.000
21
500.000
0
LINE
8
0
10
877.090
20
505.450
11
850.290
21
530.290
0
LINE
8
0
10
314.400
20
814.800
11
292.800
21
836.800
0
LINE
8
0
10
177.710
20
880.000
11
146.800
21
910.400
0
LINE
8
0
10
156.800
20
900.800
11
177.710
21
880.000
0
LINE
8
0
10
676.800
20
728.800
11
705.710
21
700.290
0
LINE
8
0
10
509.710
20
908.000
11
538.550
21
909.090
0
LINE
8
0
10
509.710
20
908.000
11
490.800
21
926.400
0
LINE
8
0
10
292.800
20
836.800
11
314.400
21
814.800
0
LINE
8
0
10
497.200
20
417.600
11
490.130
21
423.730
0
LINE
8
0
10
146.670
20
250.670
11
153.090
21
246.550
0
LINE
8
0
10
146.670
20
250.670
11
139.200
21
259.200
0
LINE
8
0
10
461.600
20
333.200
11
492.000
21
332.000
0
LINE
8
0
10
135.200
20
439.200
11
126.910
21
445.450
0
LINE
8
0
10
135.200
20
439.200
11
126.910
21
445.450
0
LINE
8
0
10
252.000
20
876.000
11
259.200
21
871.200
0
LINE
8
0
10
252.000
20
876.000
11
259.200
21
871.200
0
LINE
8
0
10
252.000
20
876.000
11
248.000
21
882.000
0
LINE
8
0
10
252.000
20
876.000
11
248.000
21
882.000
0
LINE
8
0
10
204.000
20
512.000
11
184.310
21
498.770
0
LINE
8
0
10
311.200
20
215.200
11
297.110
21
228.440
0
LINE
8
0
10
321.090
20
205.450
11
296.000
21
180.000
0
LINE
8
0
10
296.000
20
180.000
11
292.000
21
144.000
0
LINE
8
0
10
292.000
20
144.000
11
272.000
21
124.000
0
LINE
8
0
10
272.000
20
124.000
11
224.000
21
124.000
0
LINE
8
0
10
321.090
20
205.450
11
316.000
21
208.000
0
LINE
8
0
10
106.550
20
293.090
11
132.000
21
264.000
0
LINE
8
0
10
622.670
20
222.670
11
629.200
21
217.600
0
LINE
8
0
10
542.000
20
904.000
11
586.290
21
904.000
0
LINE
8
0
10
542.000
20
904.000
11
538.550
21
909.090
0
LINE
8
0
10
586.290
20
904.000
11
620.000
21
920.000
0
LINE
8
0
10
858.290
20
578.290
11
814.290
21
623.710
0
LINE
8
0
10
484.000
20
622.770
11
512.000
21
644.000
0
LINE
8
0
10
512.000
20
644.000
11
616.000
21
656.000
0
LINE
8
0
10
616.000
20
656.000
11
628.000
21
668.000
0
LINE
8
0
10
628.000
20
668.000
11
628.000
21
712.000
0
LINE
8
0
10
628.000
20
712.000
11
664.800
21
740.800
0
LINE
8
0
10
650.800
20
213.600
11
642.000
21
402.000
0
LINE
8
0
10
303.080
20
460.000
11
290.670
21
466.670
0
LINE
8
0
10
303.080
20
460.000
11
290.670
21
466.670
0
LINE
8
0
10
484.000
20
366.000
11
472.270
21
377.070
0
LINE
8
0
10
314.000
20
414.000
11
303.080
21
460.000
0
LINE
8
0
10
142.550
20
430.910
11
148.000
21
428.000
0
LINE
8
0
10
180.000
20
662.770
11
188.000
21
660.000
0
LINE
8
0
10
266.670
20
862.670
11
259.200
21
871.200
0
LINE
8
0
10
704.000
20
528.000
11
709.050
21
520.630
0
LINE
8
0
10
704.000
20
528.000
11
709.050
21
520.630
0
LINE
8
0
10
717.200
20
513.600
11
709.050
21
520.630
0
LINE
8
0
10
139.200
20
259.200
11
132.000
21
264.000
0
LINE
8
0
10
340.000
20
408.000
11
345.330
21
405.330
0
LINE
8
0
10
340.000
20
408.000
11
314.000
21
414.000
0
LINE
8
0
10
340.000
20
408.000
11
345.330
21
405.330
0
LINE
8
0
10
146.670
20
250.670
11
153.090
21
246.550
0
LINE
8
0
10
146.670
20
250.670
11
153.090
21
246.550
0
LINE
8
0
10
166.130
20
179.730
11
165.330
21
218.670
0
LINE
8
0
10
165.330
20
218.670
11
160.000
21
230.000
0
LINE
8
0
10
586.290
20
904.000
11
606.400
21
882.800
0
LINE
8
0
10
490.130
20
423.730
11
497.200
21
417.600
0
LINE
8
0
10
858.290
20
578.290
11
850.290
21
530.290
0
LINE
8
0
10
438.180
20
649.450
11
444.000
21
648.000
0
LINE
8
0
10
438.180
20
649.450
11
456.000
21
672.000
0
LINE
8
0
10
456.000
20
672.000
11
460.000
21
844.000
0
LINE
8
0
10
460.000
20
844.000
11
509.710
21
908.000
0
LINE
8
0
10
100.000
20
296.000
11
106.550
21
293.090
0
LINE
8
0
10
314.400
20
814.800
11
320.000
21
792.000
0
LINE
8
0
10
650.800
20
213.600
11
656.000
21
212.000
0
LINE
8
0
10
557.200
20
241.600
11
616.290
21
229.710
0
LINE
8
0
10
620.000
20
792.000
11
622.910
21
786.550
0
LINE
8
0
10
620.000
20
792.000
11
622.910
21
786.550
0
LINE
8
0
10
620.000
20
792.000
11
606.400
21
882.800
0
LINE
8
0
10
176.240
20
468.710
11
148.000
21
473.230
0
LINE
8
0
10
266.670
20
862.670
11
273.330
21
857.330
0
LINE
8
0
10
266.670
20
862.670
11
273.330
21
857.330
0
LINE
8
0
10
135.200
20
439.200
11
142.550
21
430.910
0
LINE
8
0
10
135.200
20
439.200
11
142.550
21
430.910
0
LINE
8
0
10
490.800
20
926.400
11
509.710
21
908.000
0
LINE
8
0
10
156.800
20
900.800
11
177.710
21
880.000
0
LINE
8
0
10
616.290
20
229.710
11
622.670
21
222.670
0
LINE
8
0
10
297.110
20
228.440
11
311.200
21
215.200
0
LINE
8
0
10
490.130
20
423.730
11
497.200
21
417.600
0
LINE
8
0
10
659.000
20
751.800
11
664.800
21
740.800
0
LINE
8
0
10
659.000
20
751.800
11
664.800
21
740.800
0
LINE
8
0
10
438.180
20
649.450
11
444.000
21
648.000
0
LINE
8
0
10
538.550
20
909.090
11
542.000
21
904.000
0
LINE
8
0
10
124.290
20
465.710
11
128.000
21
460.000
0
LINE
8
0
10
708.000
20
680.000
11
710.670
21
674.670
0
LINE
8
0
10
708.000
20
680.000
11
710.670
21
674.670
0
LINE
8
0
10
708.000
20
680.000
11
705.710
21
700.290
0
LINE
8
0
10
552.000
20
396.000
11
553.200
21
406.400
0
LINE
8
0
10
160.000
20
230.000
11
154.910
21
233.450
0
LINE
8
0
10
548.000
20
408.000
11
553.200
21
406.400
0
LINE
8
0
10
709.050
20
520.630
11
717.200
21
513.600
0
LINE
8
0
10
880.000
20
580.000
11
858.290
21
578.290
0
LINE
8
0
10
880.000
20
580.000
11
885.200
21
581.600
0
LINE
8
0
10
880.000
20
580.000
11
885.200
21
581.600
0
LINE
8
0
10
139.200
20
259.200
11
146.670
21
250.670
0
LINE
8
0
10
180.000
20
662.770
11
172.000
21
668.000
0
LINE
8
0
10
311.200
20
215.200
11
316.000
21
208.000
0
LINE
8
0
10
259.200
20
871.200
11
266.670
21
862.670
0
LINE
8
0
10
454.000
20
630.000
11
444.000
21
648.000
0
LINE
8
0
10
659.000
20
751.800
11
622.910
21
786.550
0
LINE
8
0
10
176.240
20
468.710
11
189.200
21
473.600
0
LINE
8
0
10
178.400
20
509.200
11
188.000
21
492.000
0
LINE
8
0
10
850.290
20
530.290
11
788.000
21
504.000
0
LINE
8
0
10
788.000
20
504.000
11
717.200
21
513.600
0
LINE
8
0
10
484.000
20
622.770
11
454.000
21
630.000
0
LINE
8
0
10
184.000
20
472.000
11
189.200
21
473.600
0
LINE
8
0
10
144.000
20
648.000
11
172.000
21
668.000
0
LINE
8
0
10
877.090
20
505.450
11
880.000
21
500.000
0
LINE
8
0
10
218.550
20
126.910
11
224.000
21
124.000
0
LINE
8
0
10
280.800
20
848.800
11
273.330
21
857.330
0
LINE
8
0
10
709.050
20
520.630
11
717.200
21
513.600
0
LINE
8
0
10
550.800
20
246.400
11
557.200
21
241.600
0
LINE
8
0
10
550.800
20
246.400
11
557.200
21
241.600
0
LINE
8
0
10
154.910
20
233.450
11
153.090
21
246.550
0
LINE
8
0
10
897.330
20
269.330
11
884.000
21
312.000
0
LINE
8
0
10
884.000
20
312.000
11
880.000
21
500.000
0
LINE
8
0
10
135.200
20
439.200
11
126.910
21
445.450
0
LINE
8
0
10
148.000
20
428.000
11
142.550
21
430.910
0
LINE
8
0
10
88.000
20
472.000
11
124.290
21
465.710
0
LINE
8
0
10
814.290
20
623.710
11
808.000
21
652.000
0
LINE
8
0
10
139.200
20
259.200
11
132.000
21
264.000
0
LINE
8
0
10
189.200
20
473.600
11
188.000
21
492.000
0
LINE
8
0
10
172.000
20
668.000
11
164.000
21
860.000
0
LINE
8
0
10
164.000
20
860.000
11
177.710
21
880.000
0
LINE
8
0
10
484.000
20
366.000
11
469.200
21
333.600
0
LINE
8
0
10
538.550
20
909.090
11
542.000
21
904.000
0
LINE
8
0
10
126.910
20
445.450
11
128.000
21
460.000
0
LINE
8
0
10
885.200
20
581.600
11
884.000
21
656.000
0
LINE
8
0
10
148.000
20
473.230
11
124.290
21
465.710
0
LINE
8
0
10
616.290
20
229.710
11
622.670
21
222.670
0
LINE
8
0
10
461.600
20
333.200
11
469.200
21
333.600
0
LINE
8
0
10
124.290
20
465.710
11
128.000
21
460.000
0
ENDSEC
0
EOF
