0
SECTION
2
HEADER
9
$ACADVER
1
AC1009
0
ENDSEC
0
SECTION
2
ENTITIES
0
LINE
8
0
10
686.800
20
462.400
11
509.200
21
453.600
0
LINE
8
0
10
401.070
20
616.270
11
434.000
21
626.000
0
LINE
8
0
10
774.670
20
662.670
11
718.000
21
662.000
0
LINE
8
0
10
410.670
20
518.670
11
413.600
21
497.200
0
LINE
8
0
10
801.200
20
573.600
11
886.800
21
566.400
0
LINE
8
0
10
418.000
20
194.000
11
309.200
21
189.600
0
LINE
8
0
10
447.730
20
246.130
11
426.000
21
238.000
0
LINE
8
0
10
418.000
20
194.000
11
426.000
21
238.000
0
LINE
8
0
10
886.000
20
262.000
11
892.000
21
562.290
0
LINE
8
0
10
413.600
20
497.200
11
412.000
21
492.000
0
LINE
8
0
10
713.200
20
797.200
11
742.800
21
794.400
0
LINE
8
0
10
470.800
20
452.200
11
462.400
21
369.200
0
LINE
8
0
10
837.710
20
746.290
11
838.000
21
630.000
0
LINE
8
0
10
830.000
20
794.000
11
785.200
21
794.400
0
LINE
8
0
10
306.400
20
286.800
11
308.000
21
249.140
0
LINE
8
0
10
697.710
20
452.290
11
712.000
21
424.000
0
LINE
8
0
10
712.000
20
424.000
11
700.000
21
348.000
0
LINE
8
0
10
700.000
20
348.000
11
706.400
21
289.200
0
LINE
8
0
10
400.000
20
548.000
11
410.670
21
518.670
0
LINE
8
0
10
506.400
20
577.200
11
516.000
21
676.000
0
LINE
8
0
10
309.230
20
304.000
11
308.000
21
292.000
0
LINE
8
0
10
516.000
20
676.000
11
553.330
21
713.330
0
LINE
8
0
10
242.550
20
270.910
11
243.710
21
233.140
0
LINE
8
0
10
338.000
20
778.000
11
350.000
21
802.000
0
LINE
8
0
10
706.400
20
289.200
11
708.000
21
284.000
0
LINE
8
0
10
706.400
20
289.200
11
684.000
21
288.000
0
LINE
8
0
10
356.000
20
660.000
11
337.200
21
665.600
0
LINE
8
0
10
785.600
20
589.200
11
780.000
21
660.000
0
LINE
8
0
10
380.000
20
298.770
11
376.000
21
252.000
0
LINE
8
0
10
376.000
20
252.000
11
308.000
21
249.140
0
LINE
8
0
10
408.000
20
524.000
11
410.670
21
518.670
0
LINE
8
0
10
331.650
20
546.780
11
334.220
21
540.000
0
LINE
8
0
10
331.650
20
546.780
11
334.220
21
540.000
0
LINE
8
0
10
176.000
20
246.000
11
161.600
21
261.200
0
LINE
8
0
10
434.800
20
298.400
11
309.230
21
304.000
0
LINE
8
0
10
658.000
20
802.000
11
652.000
21
764.000
0
LINE
8
0
10
652.000
20
764.000
11
636.270
21
745.870
0
LINE
8
0
10
886.800
20
566.400
11
892.000
21
562.290
0
LINE
8
0
10
886.800
20
566.400
11
892.000
21
562.290
0
LINE
8
0
10
441.600
20
253.200
11
447.730
21
246.130
0
LINE
8
0
10
441.600
20
253.200
11
447.730
21
246.130
0
LINE
8
0
10
639.710
20
658.290
11
590.550
21
709.090
0
LINE
8
0
10
585.600
20
189.200
11
578.000
21
238.000
0
LINE
8
0
10
430.800
20
494.400
11
465.090
21
461.450
0
LINE
8
0
10
612.000
20
688.000
11
616.800
21
680.800
0
LINE
8
0
10
612.000
20
688.000
11
616.800
21
680.800
0
LINE
8
0
10
612.000
20
688.000
11
604.800
21
692.800
0
LINE
8
0
10
612.000
20
688.000
11
604.800
21
692.800
0
LINE
8
0
10
642.000
20
740.000
11
652.000
21
740.000
0
LINE
8
0
10
642.000
20
740.000
11
636.270
21
745.870
0
LINE
8
0
10
350.000
20
802.000
11
422.000
21
818.000
0
LINE
8
0
10
439.200
20
487.200
11
444.000
21
480.000
0
LINE
8
0
10
780.000
20
660.000
11
774.670
21
662.670
0
LINE
8
0
10
780.000
20
660.000
11
774.670
21
662.670
0
LINE
8
0
10
886.000
20
262.000
11
858.000
21
246.000
0
LINE
8
0
10
199.710
20
214.290
11
221.050
21
208.630
0
LINE
8
0
10
258.800
20
361.600
11
205.710
21
349.710
0
LINE
8
0
10
324.000
20
680.000
11
328.800
21
672.800
0
LINE
8
0
10
324.000
20
680.000
11
328.800
21
672.800
0
LINE
8
0
10
324.000
20
680.000
11
321.710
21
719.710
0
LINE
8
0
10
794.670
20
578.670
11
801.200
21
573.600
0
LINE
8
0
10
794.670
20
578.670
11
801.200
21
573.600
0
LINE
8
0
10
309.200
20
189.600
11
298.290
21
198.290
0
LINE
8
0
10
258.800
20
361.600
11
264.000
21
360.000
0
LINE
8
0
10
258.800
20
361.600
11
257.600
21
440.530
0
LINE
8
0
10
858.000
20
246.000
11
850.000
21
234.000
0
LINE
8
0
10
553.330
20
713.330
11
548.440
21
749.110
0
LINE
8
0
10
716.000
20
232.000
11
684.000
21
212.000
0
LINE
8
0
10
716.000
20
232.000
11
758.800
21
226.400
0
LINE
8
0
10
716.000
20
232.000
11
708.000
21
252.000
0
LINE
8
0
10
243.710
20
233.140
11
286.000
21
228.000
0
LINE
8
0
10
785.600
20
589.200
11
794.670
21
578.670
0
LINE
8
0
10
906.800
20
626.400
11
838.000
21
630.000
0
LINE
8
0
10
509.200
20
453.600
11
504.000
21
452.000
0
LINE
8
0
10
509.200
20
453.600
11
509.850
21
568.310
0
LINE
8
0
10
242.550
20
270.910
11
205.450
21
313.090
0
LINE
8
0
10
205.450
20
313.090
11
242.550
21
270.910
0
LINE
8
0
10
782.800
20
749.600
11
745.200
21
749.600
0
LINE
8
0
10
616.800
20
680.800
11
658.890
21
643.560
0
LINE
8
0
10
496.000
20
580.000
11
506.400
21
577.200
0
LINE
8
0
10
341.200
20
537.600
11
334.220
21
540.000
0
LINE
8
0
10
341.200
20
537.600
11
324.000
21
554.000
0
LINE
8
0
10
465.090
20
461.450
11
470.800
21
452.200
0
LINE
8
0
10
338.000
20
778.000
11
321.710
21
719.710
0
LINE
8
0
10
434.800
20
298.400
11
464.000
21
312.000
0
LINE
8
0
10
440.000
20
300.000
11
434.800
21
298.400
0
LINE
8
0
10
464.000
20
312.000
11
464.000
21
364.000
0
LINE
8
0
10
697.710
20
452.290
11
686.800
21
462.400
0
LINE
8
0
10
697.710
20
452.290
11
686.800
21
462.400
0
LINE
8
0
10
286.000
20
228.000
11
300.000
21
214.290
0
LINE
8
0
10
286.000
20
228.000
11
300.000
21
214.290
0
LINE
8
0
10
302.000
20
358.000
11
264.000
21
360.000
0
LINE
8
0
10
205.710
20
349.710
11
176.000
21
376.000
0
LINE
8
0
10
718.000
20
662.000
11
712.000
21
640.000
0
LINE
8
0
10
712.000
20
640.000
11
658.890
21
643.560
0
LINE
8
0
10
430.800
20
494.400
11
439.200
21
487.200
0
LINE
8
0
10
430.800
20
494.400
11
439.200
21
487.200
0
LINE
8
0
10
328.800
20
672.800
11
324.000
21
554.000
0
LINE
8
0
10
221.050
20
208.630
11
236.000
21
192.000
0
LINE
8
0
10
306.400
20
286.800
11
242.550
21
270.910
0
LINE
8
0
10
306.400
20
286.800
11
308.000
21
292.000
0
LINE
8
0
10
196.000
20
220.000
11
199.710
21
214.290
0
LINE
8
0
10
196.000
20
220.000
11
199.710
21
214.290
0
LINE
8
0
10
196.000
20
220.000
11
187.160
21
223.370
0
LINE
8
0
10
253.710
20
445.710
11
257.600
21
440.530
0
LINE
8
0
10
253.710
20
445.710
11
257.600
21
440.530
0
LINE
8
0
10
253.710
20
445.710
11
188.000
21
452.000
0
LINE
8
0
10
188.000
20
452.000
11
176.000
21
440.000
0
LINE
8
0
10
176.000
20
440.000
11
176.000
21
376.000
0
LINE
8
0
10
516.000
20
784.000
11
521.050
21
776.630
0
LINE
8
0
10
516.000
20
784.000
11
521.050
21
776.630
0
LINE
8
0
10
516.000
20
784.000
11
506.000
21
806.000
0
LINE
8
0
10
521.050
20
776.630
11
548.440
21
749.110
0
LINE
8
0
10
521.050
20
776.630
11
548.440
21
749.110
0
LINE
8
0
10
794.670
20
578.670
11
785.600
21
589.200
0
LINE
8
0
10
509.200
20
453.600
11
504.000
21
452.000
0
LINE
8
0
10
830.800
20
749.600
11
837.710
21
746.290
0
LINE
8
0
10
417.710
20
452.000
11
504.000
21
452.000
0
LINE
8
0
10
417.710
20
452.000
11
411.560
21
458.890
0
LINE
8
0
10
658.890
20
643.560
11
650.800
21
650.400
0
LINE
8
0
10
464.000
20
452.000
11
470.800
21
452.200
0
LINE
8
0
10
434.800
20
298.400
11
441.600
21
253.200
0
LINE
8
0
10
309.200
20
189.600
11
298.290
21
198.290
0
LINE
8
0
10
485.330
20
625.330
11
508.000
21
626.770
0
LINE
8
0
10
341.200
20
537.600
11
334.220
21
540.000
0
LINE
8
0
10
337.200
20
665.600
11
328.800
21
672.800
0
LINE
8
0
10
506.400
20
577.200
11
509.850
21
568.310
0
LINE
8
0
10
231.690
20
285.230
11
205.450
21
313.090
0
LINE
8
0
10
713.200
20
797.200
11
708.000
21
800.000
0
LINE
8
0
10
205.710
20
349.710
11
176.000
21
376.000
0
LINE
8
0
10
590.550
20
709.090
11
604.800
21
692.800
0
LINE
8
0
10
400.000
20
548.000
11
402.400
21
542.800
0
LINE
8
0
10
400.000
20
548.000
11
401.070
21
616.270
0
LINE
8
0
10
298.290
20
198.290
11
304.000
21
244.000
0
LINE
8
0
10
401.070
20
616.270
11
396.000
21
622.000
0
LINE
8
0
10
401.070
20
616.270
11
396.000
21
622.000
0
LINE
8
0
10
451.200
20
475.200
11
444.000
21
480.000
0
LINE
8
0
10
465.090
20
461.450
11
451.200
21
475.200
0
LINE
8
0
10
286.000
20
228.000
11
300.000
21
214.290
0
LINE
8
0
10
785.200
20
794.400
11
776.310
21
797.850
0
LINE
8
0
10
180.000
20
230.000
11
199.710
21
214.290
0
LINE
8
0
10
180.000
20
230.000
11
187.160
21
223.370
0
LINE
8
0
10
758.800
20
226.400
11
764.000
21
228.000
0
LINE
8
0
10
686.800
20
462.400
11
697.710
21
452.290
0
LINE
8
0
10
742.800
20
794.400
11
748.000
21
796.000
0
LINE
8
0
10
414.000
20
374.000
11
462.400
21
369.200
0
LINE
8
0
10
242.550
20
270.910
11
238.290
21
276.000
0
LINE
8
0
10
161.600
20
261.200
11
176.000
21
246.000
0
LINE
8
0
10
794.670
20
578.670
11
785.600
21
589.200
0
LINE
8
0
10
221.050
20
208.630
11
236.000
21
192.000
0
LINE
8
0
10
912.000
20
622.000
11
912.000
21
580.000
0
LINE
8
0
10
912.000
20
580.000
11
892.000
21
562.290
0
LINE
8
0
10
912.000
20
622.000
11
906.800
21
626.400
0
LINE
8
0
10
594.890
20
179.560
11
588.000
21
184.000
0
LINE
8
0
10
594.890
20
179.560
11
585.600
21
189.200
0
LINE
8
0
10
658.890
20
643.560
11
650.800
21
650.400
0
LINE
8
0
10
850.000
20
234.000
11
764.000
21
228.000
0
LINE
8
0
10
309.200
20
189.600
11
298.290
21
198.290
0
LINE
8
0
10
709.600
20
753.200
11
713.200
21
797.200
0
LINE
8
0
10
837.710
20
746.290
11
830.800
21
749.600
0
LINE
8
0
10
447.730
20
246.130
11
578.000
21
238.000
0
LINE
8
0
10
636.270
20
745.870
11
642.000
21
740.000
0
LINE
8
0
10
713.200
20
797.200
11
708.000
21
800.000
0
LINE
8
0
10
708.000
20
252.000
11
710.670
21
246.670
0
LINE
8
0
10
708.000
20
252.000
11
708.000
21
284.000
0
LINE
8
0
10
590.550
20
709.090
11
604.800
21
692.800
0
LINE
8
0
10
706.400
20
289.200
11
708.000
21
284.000
0
LINE
8
0
10
402.400
20
542.800
11
341.200
21
537.600
0
LINE
8
0
10
451.200
20
475.200
11
444.000
21
480.000
0
LINE
8
0
10
321.710
20
719.710
11
268.000
21
724.000
0
LINE
8
0
10
316.000
20
720.000
11
321.710
21
719.710
0
LINE
8
0
10
413.600
20
497.200
11
412.000
21
492.000
0
LINE
8
0
10
413.600
20
497.200
11
430.800
21
494.400
0
LINE
8
0
10
785.200
20
794.400
11
782.800
21
749.600
0
LINE
8
0
10
785.200
20
794.400
11
776.310
21
797.850
0
LINE
8
0
10
658.000
20
802.000
11
708.000
21
800.000
0
LINE
8
0
10
328.800
20
672.800
11
337.200
21
665.600
0
LINE
8
0
10
490.000
20
818.000
11
506.000
21
806.000
0
LINE
8
0
10
548.440
20
749.110
11
521.050
21
776.630
0
LINE
8
0
10
243.710
20
233.140
11
236.000
21
228.000
0
LINE
8
0
10
243.710
20
233.140
11
236.000
21
228.000
0
LINE
8
0
10
462.400
20
369.200
11
464.000
21
364.000
0
LINE
8
0
10
411.560
20
458.890
11
417.710
21
452.000
0
LINE
8
0
10
221.050
20
208.630
11
229.330
21
200.000
0
LINE
8
0
10
412.000
20
492.000
11
411.560
21
458.890
0
LINE
8
0
10
594.890
20
179.560
11
588.000
21
184.000
0
LINE
8
0
10
709.600
20
753.200
11
714.000
21
748.000
0
LINE
8
0
10
434.000
20
626.000
11
480.000
21
628.000
0
LINE
8
0
10
480.000
20
628.000
11
485.330
21
625.330
0
LINE
8
0
10
480.000
20
628.000
11
485.330
21
625.330
0
LINE
8
0
10
161.600
20
261.200
11
152.000
21
280.000
0
LINE
8
0
10
152.000
20
280.000
11
205.450
21
313.090
0
LINE
8
0
10
906.800
20
626.400
11
912.000
21
622.000
0
LINE
8
0
10
782.800
20
749.600
11
788.000
21
748.000
0
LINE
8
0
10
451.200
20
475.200
11
465.090
21
461.450
0
LINE
8
0
10
236.000
20
192.000
11
298.290
21
198.290
0
LINE
8
0
10
740.000
20
748.000
11
714.000
21
748.000
0
LINE
8
0
10
740.000
20
748.000
11
745.200
21
749.600
0
LINE
8
0
10
740.000
20
748.000
11
745.200
21
749.600
0
LINE
8
0
10
328.800
20
672.800
11
337.200
21
665.600
0
LINE
8
0
10
236.000
20
228.000
11
221.050
21
208.630
0
LINE
8
0
10
185.230
20
367.690
11
205.710
21
349.710
0
LINE
8
0
10
334.220
20
540.000
11
310.000
21
458.000
0
LINE
8
0
10
334.220
20
540.000
11
331.650
21
546.780
0
LINE
8
0
10
176.000
20
246.000
11
161.600
21
261.200
0
LINE
8
0
10
616.800
20
680.800
11
639.710
21
658.290
0
LINE
8
0
10
253.710
20
445.710
11
257.600
21
440.530
0
LINE
8
0
10
253.710
20
445.710
11
310.000
21
458.000
0
LINE
8
0
10
331.650
20
546.780
11
334.220
21
540.000
0
LINE
8
0
10
331.650
20
546.780
11
364.000
21
572.000
0
LINE
8
0
10
364.000
20
572.000
11
398.770
21
568.000
0
LINE
8
0
10
447.730
20
246.130
11
441.600
21
253.200
0
LINE
8
0
10
585.600
20
189.200
11
588.000
21
184.000
0
LINE
8
0
10
892.000
20
562.290
11
886.800
21
566.400
0
LINE
8
0
10
553.330
20
713.330
11
590.550
21
709.090
0
LINE
8
0
10
331.650
20
546.780
11
324.000
21
554.000
0
LINE
8
0
10
906.800
20
626.400
11
912.000
21
622.000
0
LINE
8
0
10
205.450
20
313.090
11
205.710
21
349.710
0
LINE
8
0
10
258.800
20
361.600
11
264.000
21
360.000
0
LINE
8
0
10
801.200
20
573.600
11
794.670
21
578.670
0
LINE
8
0
10
308.000
20
292.000
11
306.400
21
286.800
0
LINE
8
0
10
414.000
20
374.000
11
417.710
21
452.000
0
LINE
8
0
10
594.890
20
179.560
11
758.000
21
178.000
0
LINE
8
0
10
714.000
20
748.000
11
709.600
21
753.200
0
LINE
8
0
10
470.800
20
452.200
11
465.090
21
461.450
0
LINE
8
0
10
257.600
20
440.530
11
260.000
21
448.000
0
LINE
8
0
10
830.800
20
749.600
11
788.000
21
748.000
0
LINE
8
0
10
309.230
20
304.000
11
302.000
21
358.000
0
LINE
8
0
10
331.650
20
546.780
11
324.000
21
554.000
0
LINE
8
0
10
308.000
20
249.140
11
304.000
21
244.000
0
LINE
8
0
10
506.400
20
577.200
11
509.850
21
568.310
0
LINE
8
0
10
490.000
20
818.000
11
422.000
21
818.000
0
LINE
8
0
10
636.270
20
745.870
11
642.000
21
740.000
0
LINE
8
0
10
764.000
20
228.000
11
758.800
21
226.400
0
LINE
8
0
10
748.000
20
796.000
11
742.800
21
794.400
0
LINE
8
0
10
748.000
20
796.000
11
776.310
21
797.850
0
LINE
8
0
10
401.070
20
616.270
11
396.000
21
622.000
0
LINE
8
0
10
758.800
20
226.400
11
758.000
21
178.000
0
LINE
8
0
10
304.000
20
244.000
11
308.000
21
249.140
0
LINE
8
0
10
187.160
20
223.370
11
180.000
21
230.000
0
LINE
8
0
10
742.800
20
794.400
11
745.200
21
749.600
0
LINE
8
0
10
411.560
20
458.890
11
417.710
21
452.000
0
LINE
8
0
10
830.000
20
794.000
11
830.800
21
749.600
0
LINE
8
0
10
396.000
20
622.000
11
392.000
21
636.000
0
LINE
8
0
10
439.200
20
487.200
11
444.000
21
480.000
0
LINE
8
0
10
462.400
20
369.200
11
464.000
21
364.000
0
LINE
8
0
10
709.600
20
753.200
11
714.000
21
748.000
0
LINE
8
0
10
585.600
20
189.200
11
588.000
21
184.000
0
LINE
8
0
10
782.800
20
749.600
11
788.000
21
748.000
0
LINE
8
0
10
636.270
20
745.870
11
590.550
21
709.090
0
LINE
8
0
10
180.000
20
230.000
11
176.000
21
246.000
0
ENDSEC
0
EOF
